<svg xmlns="http://www.w3.org/2000/svg" viewBox="0 0 128 128">
  <defs>
    <linearGradient id="bg" x1="0%" y1="0%" x2="100%" y2="100%">
      <stop offset="0%" style="stop-color:#6C5CE7"/>
      <stop offset="100%" style="stop-color:#A29BFE"/>
    </linearGradient>
  </defs>
  <!-- Rounded square background -->
  <rect x="8" y="8" width="112" height="112" rx="24" ry="24" fill="url(#bg)"/>
  <!-- Bookmark/folder shape -->
  <path d="M36 30 h56 a6 6 0 0 1 6 6 v56 a6 6 0 0 1-6 6 H36 a6 6 0 0 1-6-6 V36 a6 6 0 0 1 6-6z" fill="white" opacity="0.95"/>
  <!-- Play triangle -->
  <polygon points="56,48 56,80 80,64" fill="#6C5CE7"/>
  <!-- Plus badge -->
  <circle cx="92" cy="92" r="18" fill="#00B894"/>
  <rect x="88" y="82" width="8" height="20" rx="2" fill="white"/>
  <rect x="82" y="88" width="20" height="8" rx="2" fill="white"/>
</svg>
